<?xml version="1.0" encoding="UTF-8" standalone="no"?>
<!DOCTYPE svg PUBLIC "-//W3C//DTD SVG 1.1//EN"
 "http://www.w3.org/Graphics/SVG/1.1/DTD/svg11.dtd">
<!-- Generated by graphviz version 2.38.0 (20140413.2041)
 -->
<!-- Title: G Pages: 1 -->
<svg width="720pt" height="1489pt"
 viewBox="0.00 0.00 719.50 1488.89" xmlns="http://www.w3.org/2000/svg" xmlns:xlink="http://www.w3.org/1999/xlink">
<g id="graph0" class="graph" transform="scale(1 1) rotate(0) translate(4 1484.89)">
<title>G</title>
<g id="a_graph0"><a xlink:title=" ">
<polygon fill="white" stroke="none" points="-4,4 -4,-1484.89 715.5,-1484.89 715.5,4 -4,4"/>
<text text-anchor="start" x="256.25" y="-1466.69" font-family="Times,serif" font-weight="bold" font-size="14.00">optimization: after cse, before dce</text>
<text text-anchor="start" x="35.25" y="-1452.69" font-family="Times,serif" font-weight="bold" font-size="14.00">Computation cluster_1__XlaCompiledKernel_true__XlaNumConstantArgs_0__XlaNumResourceArgs_0_.v28</text>
</a>
</g>
<!-- 140175364415776 -->
<g id="node1" class="node"><title>140175364415776</title>
<g id="a_node1"><a xlink:title=" ">
<polygon fill="#ffe0b2" stroke="#cbae82" points="144,-1444.89 12,-1444.89 12,-1408.89 144,-1408.89 144,-1444.89"/>
<text text-anchor="start" x="41.5" y="-1430.69" font-family="Times,serif" font-weight="bold" font-size="14.00">Parameter 2</text>
<text text-anchor="start" x="20" y="-1416.69" font-family="Times,serif" font-size="14.00">f32[10000,784]{1,0}</text>
</a>
</g>
</g>
<!-- 140175364430736 -->
<g id="node3" class="node"><title>140175364430736</title>
<g id="a_node3"><a xlink:title=" ">
<polygon fill="#1565c0" stroke="#003c8f" points="316,-1372.89 2.84217e-14,-1372.89 2.84217e-14,-1322.89 316,-1322.89 316,-1372.89"/>
<text text-anchor="start" x="148.5" y="-1358.69" font-family="Times,serif" font-weight="bold" font-size="14.00" fill="white">dot</text>
<text text-anchor="start" x="8" y="-1344.69" font-family="Times,serif" font-size="14.00" fill="white">lhs_contracting_dims={1}, rhs_contracting_dims={0}</text>
<text text-anchor="start" x="103.5" y="-1330.69" font-family="Times,serif" font-size="14.00" fill="white">f32[10000,10]{1,0}</text>
</a>
</g>
</g>
<!-- 140175364415776&#45;&gt;140175364430736 -->
<g id="edge1" class="edge"><title>140175364415776&#45;&gt;140175364430736</title>
<g id="a_edge1"><a xlink:title="arg2 &#45;&gt; dot">
<path fill="none" stroke="black" d="M95.7546,-1408.81C104.571,-1400.32 115.5,-1389.8 125.729,-1379.95"/>
<polygon fill="black" stroke="black" points="128.235,-1382.4 133.013,-1372.94 123.381,-1377.36 128.235,-1382.4"/>
</a>
</g>
<text text-anchor="middle" x="125.815" y="-1387.9" font-family="Times,serif" font-size="14.00">0</text>
</g>
<!-- 140175364416752 -->
<g id="node2" class="node"><title>140175364416752</title>
<g id="a_node2"><a xlink:title=" ">
<polygon fill="#ffe0b2" stroke="#cbae82" points="274,-1444.89 162,-1444.89 162,-1408.89 274,-1408.89 274,-1444.89"/>
<text text-anchor="start" x="181.5" y="-1430.69" font-family="Times,serif" font-weight="bold" font-size="14.00">Parameter 1</text>
<text text-anchor="start" x="170" y="-1416.69" font-family="Times,serif" font-size="14.00">f32[784,10]{1,0}</text>
</a>
</g>
</g>
<!-- 140175364416752&#45;&gt;140175364430736 -->
<g id="edge2" class="edge"><title>140175364416752&#45;&gt;140175364430736</title>
<g id="a_edge2"><a xlink:title="arg1 &#45;&gt; dot">
<path fill="none" stroke="black" d="M204.684,-1408.81C198.329,-1400.65 190.509,-1390.61 183.099,-1381.1"/>
<polygon fill="black" stroke="black" points="185.647,-1378.68 176.74,-1372.94 180.126,-1382.98 185.647,-1378.68"/>
</a>
</g>
<text text-anchor="middle" x="194.549" y="-1378.35" font-family="Times,serif" font-size="14.00">1</text>
</g>
<!-- 140175364472528 -->
<g id="node6" class="node"><title>140175364472528</title>
<g id="a_node6"><a xlink:title=" ">
<polygon fill="#fff9c4" stroke="#cbc693" points="339.5,-1286.89 214.5,-1286.89 214.5,-1250.89 339.5,-1250.89 339.5,-1286.89"/>
<text text-anchor="start" x="260.5" y="-1272.69" font-family="Times,serif" font-weight="bold" font-size="14.00">add.1</text>
<text text-anchor="start" x="222.5" y="-1258.69" font-family="Times,serif" font-size="14.00">f32[10000,10]{1,0}</text>
</a>
</g>
</g>
<!-- 140175364430736&#45;&gt;140175364472528 -->
<g id="edge4" class="edge"><title>140175364430736&#45;&gt;140175364472528</title>
<g id="a_edge4"><a xlink:title="dot &#45;&gt; add.1">
<path fill="none" stroke="black" d="M195.326,-1322.74C210.115,-1313.17 227.037,-1302.22 241.628,-1292.78"/>
<polygon fill="black" stroke="black" points="243.877,-1295.5 250.372,-1287.12 240.075,-1289.62 243.877,-1295.5"/>
</a>
</g>
<text text-anchor="middle" x="239.745" y="-1300.37" font-family="Times,serif" font-size="14.00">0</text>
</g>
<!-- 140175364432208 -->
<g id="node4" class="node"><title>140175364432208</title>
<g id="a_node4"><a xlink:title=" ">
<polygon fill="#ffe0b2" stroke="#cbae82" points="440.5,-1444.89 351.5,-1444.89 351.5,-1408.89 440.5,-1408.89 440.5,-1444.89"/>
<text text-anchor="start" x="359.5" y="-1430.69" font-family="Times,serif" font-weight="bold" font-size="14.00">Parameter 0</text>
<text text-anchor="start" x="375.5" y="-1416.69" font-family="Times,serif" font-size="14.00">f32[10]</text>
</a>
</g>
</g>
<!-- 140175364471792 -->
<g id="node5" class="node"><title>140175364471792</title>
<g id="a_node5"><a xlink:title=" ">
<polygon fill="#c8e6c9" stroke="#97b498" points="458.5,-1372.89 333.5,-1372.89 333.5,-1322.89 458.5,-1322.89 458.5,-1372.89"/>
<text text-anchor="start" x="367" y="-1358.69" font-family="Times,serif" font-weight="bold" font-size="14.00">broadcast</text>
<text text-anchor="start" x="350.5" y="-1344.69" font-family="Times,serif" font-size="14.00">dimensions={1}</text>
<text text-anchor="start" x="341.5" y="-1330.69" font-family="Times,serif" font-size="14.00">f32[10000,10]{1,0}</text>
</a>
</g>
</g>
<!-- 140175364432208&#45;&gt;140175364471792 -->
<g id="edge3" class="edge"><title>140175364432208&#45;&gt;140175364471792</title>
<g id="a_edge3"><a xlink:title="arg0 &#45;&gt; broadcast">
<path fill="none" stroke="black" d="M396,-1408.81C396,-1401.23 396,-1392.02 396,-1383.13"/>
<polygon fill="black" stroke="black" points="399.5,-1382.94 396,-1372.94 392.5,-1382.94 399.5,-1382.94"/>
</a>
</g>
</g>
<!-- 140175364471792&#45;&gt;140175364472528 -->
<g id="edge5" class="edge"><title>140175364471792&#45;&gt;140175364472528</title>
<g id="a_edge5"><a xlink:title="broadcast &#45;&gt; add.1">
<path fill="none" stroke="black" d="M358.674,-1322.74C343.885,-1313.17 326.963,-1302.22 312.372,-1292.78"/>
<polygon fill="black" stroke="black" points="313.925,-1289.62 303.628,-1287.12 310.123,-1295.5 313.925,-1289.62"/>
</a>
</g>
<text text-anchor="middle" x="323.438" y="-1286.17" font-family="Times,serif" font-size="14.00">1</text>
</g>
<!-- 140175364474000 -->
<g id="node7" class="node"><title>140175364474000</title>
<g id="a_node7"><a xlink:title=" ">
<polygon fill="#e1bee7" stroke="#af8eb5" points="300.5,-1214.89 149.5,-1214.89 149.5,-1136.89 300.5,-1136.89 300.5,-1214.89"/>
<text text-anchor="start" x="205" y="-1200.69" font-family="Times,serif" font-weight="bold" font-size="14.00">reduce</text>
<text text-anchor="start" x="163.5" y="-1186.69" font-family="Times,serif" font-size="14.00">Subcomputation: </text>
<text text-anchor="start" x="260.5" y="-1186.69" font-family="Times,serif" font-weight="bold" font-size="14.00">max</text>
<text text-anchor="start" x="179.5" y="-1172.69" font-family="Times,serif" font-size="14.00">dimensions={1}</text>
<text text-anchor="start" x="194.5" y="-1158.69" font-family="Times,serif" font-size="14.00">f32[10000]</text>
<text text-anchor="start" x="157.5" y="-1144.69" font-family="Times,serif" font-weight="bold" font-size="14.00">operand 1</text>
<text text-anchor="start" x="216.5" y="-1144.69" font-family="Times,serif" font-size="14.00"> = &#45;inf (f32[])</text>
</a>
</g>
</g>
<!-- 140175364472528&#45;&gt;140175364474000 -->
<g id="edge6" class="edge"><title>140175364472528&#45;&gt;140175364474000</title>
<g id="a_edge6"><a xlink:title="add.1 &#45;&gt; reduce">
<path fill="none" stroke="black" d="M267.219,-1250.78C262.804,-1243.05 257.351,-1233.51 251.846,-1223.87"/>
<polygon fill="black" stroke="black" points="254.806,-1222 246.805,-1215.05 248.728,-1225.47 254.806,-1222"/>
</a>
</g>
<text text-anchor="middle" x="263.137" y="-1222.9" font-family="Times,serif" font-size="14.00">0</text>
</g>
<!-- 140175364475472 -->
<g id="node9" class="node"><title>140175364475472</title>
<g id="a_node9"><a xlink:title=" ">
<polygon fill="#fff9c4" stroke="#cbc693" points="345.5,-1014.89 214.5,-1014.89 214.5,-978.894 345.5,-978.894 345.5,-1014.89"/>
<text text-anchor="start" x="256" y="-1000.69" font-family="Times,serif" font-weight="bold" font-size="14.00">equal&#45;to</text>
<text text-anchor="start" x="222.5" y="-986.694" font-family="Times,serif" font-size="14.00">pred[10000,10]{1,0}</text>
</a>
</g>
</g>
<!-- 140175364472528&#45;&gt;140175364475472 -->
<g id="edge8" class="edge"><title>140175364472528&#45;&gt;140175364475472</title>
<g id="a_edge8"><a xlink:title="add.1 &#45;&gt; equal&#45;to">
<path fill="none" stroke="black" d="M290.564,-1250.87C297.558,-1240.98 305.367,-1227.94 309,-1214.89 328.567,-1144.63 320.305,-1121.75 303,-1050.89 300.811,-1041.93 297.224,-1032.56 293.528,-1024.24"/>
<polygon fill="black" stroke="black" points="296.628,-1022.61 289.215,-1015.04 290.29,-1025.58 296.628,-1022.61"/>
</a>
</g>
<text text-anchor="middle" x="304.561" y="-1024.17" font-family="Times,serif" font-size="14.00">0</text>
</g>
<!-- 140175364474736 -->
<g id="node8" class="node"><title>140175364474736</title>
<g id="a_node8"><a xlink:title=" ">
<polygon fill="#c8e6c9" stroke="#97b498" points="294.5,-1100.89 169.5,-1100.89 169.5,-1050.89 294.5,-1050.89 294.5,-1100.89"/>
<text text-anchor="start" x="198" y="-1086.69" font-family="Times,serif" font-weight="bold" font-size="14.00">broadcast.1</text>
<text text-anchor="start" x="186.5" y="-1072.69" font-family="Times,serif" font-size="14.00">dimensions={0}</text>
<text text-anchor="start" x="177.5" y="-1058.69" font-family="Times,serif" font-size="14.00">f32[10000,10]{1,0}</text>
</a>
</g>
</g>
<!-- 140175364474000&#45;&gt;140175364474736 -->
<g id="edge7" class="edge"><title>140175364474000&#45;&gt;140175364474736</title>
<g id="a_edge7"><a xlink:title="reduce &#45;&gt; broadcast.1">
<path fill="none" stroke="black" d="M227.726,-1136.72C228.331,-1128.26 228.968,-1119.34 229.56,-1111.05"/>
<polygon fill="black" stroke="black" points="233.059,-1111.19 230.281,-1100.96 226.077,-1110.69 233.059,-1111.19"/>
</a>
</g>
</g>
<!-- 140175364474736&#45;&gt;140175364475472 -->
<g id="edge9" class="edge"><title>140175364474736&#45;&gt;140175364475472</title>
<g id="a_edge9"><a xlink:title="broadcast.1 &#45;&gt; equal&#45;to">
<path fill="none" stroke="black" d="M247.188,-1050.53C252.488,-1042.03 258.453,-1032.46 263.83,-1023.83"/>
<polygon fill="black" stroke="black" points="266.848,-1025.61 269.168,-1015.27 260.908,-1021.9 266.848,-1025.61"/>
</a>
</g>
<text text-anchor="middle" x="266.752" y="-1031.42" font-family="Times,serif" font-size="14.00">1</text>
</g>
<!-- 140175364476208 -->
<g id="node10" class="node"><title>140175364476208</title>
<g id="a_node10"><a xlink:title=" ">
<polygon fill="#fff9c4" stroke="#cbc693" points="343,-928.894 217,-928.894 217,-892.894 343,-892.894 343,-928.894"/>
<text text-anchor="start" x="258" y="-914.694" font-family="Times,serif" font-weight="bold" font-size="14.00">convert</text>
<text text-anchor="start" x="225" y="-900.694" font-family="Times,serif" font-size="14.00">s64[10000,10]{1,0}</text>
</a>
</g>
</g>
<!-- 140175364475472&#45;&gt;140175364476208 -->
<g id="edge10" class="edge"><title>140175364475472&#45;&gt;140175364476208</title>
<g id="a_edge10"><a xlink:title="equal&#45;to &#45;&gt; convert">
<path fill="none" stroke="black" d="M280,-978.489C280,-967.151 280,-952.121 280,-939.209"/>
<polygon fill="black" stroke="black" points="283.5,-938.989 280,-928.989 276.5,-938.989 283.5,-938.989"/>
</a>
</g>
</g>
<!-- 140175364478416 -->
<g id="node12" class="node"><title>140175364478416</title>
<g id="a_node12"><a xlink:title=" ">
<polygon fill="#fff9c4" stroke="#cbc693" points="401,-842.894 275,-842.894 275,-806.894 401,-806.894 401,-842.894"/>
<text text-anchor="start" x="313.5" y="-828.694" font-family="Times,serif" font-weight="bold" font-size="14.00">shift&#45;left</text>
<text text-anchor="start" x="283" y="-814.694" font-family="Times,serif" font-size="14.00">s64[10000,10]{1,0}</text>
</a>
</g>
</g>
<!-- 140175364476208&#45;&gt;140175364478416 -->
<g id="edge11" class="edge"><title>140175364476208&#45;&gt;140175364478416</title>
<g id="a_edge11"><a xlink:title="convert &#45;&gt; shift&#45;left">
<path fill="none" stroke="black" d="M292.018,-892.489C300.238,-880.584 311.268,-864.609 320.465,-851.289"/>
<polygon fill="black" stroke="black" points="323.394,-853.207 326.196,-842.989 317.634,-849.229 323.394,-853.207"/>
</a>
</g>
<text text-anchor="middle" x="322.853" y="-859.008" font-family="Times,serif" font-size="14.00">0</text>
</g>
<!-- 140175364477680 -->
<g id="node11" class="node"><title>140175364477680</title>
<g id="a_node11"><a xlink:title=" ">
<polygon fill="#c8e6c9" stroke="#97b498" points="496.5,-942.894 361.5,-942.894 361.5,-878.894 496.5,-878.894 496.5,-942.894"/>
<text text-anchor="start" x="395" y="-928.694" font-family="Times,serif" font-weight="bold" font-size="14.00">broadcast.2</text>
<text text-anchor="start" x="386.5" y="-914.694" font-family="Times,serif" font-size="14.00">dimensions={}</text>
<text text-anchor="start" x="374" y="-900.694" font-family="Times,serif" font-size="14.00">s64[10000,10]{1,0}</text>
<text text-anchor="start" x="369.5" y="-886.694" font-family="Times,serif" font-weight="bold" font-size="14.00">operand</text>
<text text-anchor="start" x="418.5" y="-886.694" font-family="Times,serif" font-size="14.00"> = 63 (s64[])</text>
</a>
</g>
</g>
<!-- 140175364477680&#45;&gt;140175364478416 -->
<g id="edge12" class="edge"><title>140175364477680&#45;&gt;140175364478416</title>
<g id="a_edge12"><a xlink:title="broadcast.2 &#45;&gt; shift&#45;left">
<path fill="none" stroke="black" d="M395.374,-878.854C384.986,-869.266 373.712,-858.859 363.929,-849.828"/>
<polygon fill="black" stroke="black" points="366.17,-847.134 356.448,-842.923 361.422,-852.277 366.17,-847.134"/>
</a>
</g>
<text text-anchor="middle" x="375.5" y="-845.306" font-family="Times,serif" font-size="14.00">1</text>
</g>
<!-- 140175364480544 -->
<g id="node13" class="node"><title>140175364480544</title>
<g id="a_node13"><a xlink:title=" ">
<polygon fill="#fff9c4" stroke="#cbc693" points="453,-756.894 313,-756.894 313,-720.894 453,-720.894 453,-756.894"/>
<text text-anchor="start" x="321" y="-742.694" font-family="Times,serif" font-weight="bold" font-size="14.00">shift&#45;right&#45;arithmetic</text>
<text text-anchor="start" x="328" y="-728.694" font-family="Times,serif" font-size="14.00">s64[10000,10]{1,0}</text>
</a>
</g>
</g>
<!-- 140175364477680&#45;&gt;140175364480544 -->
<g id="edge14" class="edge"><title>140175364477680&#45;&gt;140175364480544</title>
<g id="a_edge14"><a xlink:title="broadcast.2 &#45;&gt; shift&#45;right&#45;arithmetic">
<path fill="none" stroke="black" d="M424.937,-878.87C421.831,-858.227 416.899,-830.642 410,-806.894 406.036,-793.251 400.294,-778.563 395.123,-766.426"/>
<polygon fill="black" stroke="black" points="398.176,-764.673 390.965,-756.91 391.761,-767.475 398.176,-764.673"/>
</a>
</g>
<text text-anchor="middle" x="405.967" y="-766.436" font-family="Times,serif" font-size="14.00">1</text>
</g>
<!-- 140175364478416&#45;&gt;140175364480544 -->
<g id="edge13" class="edge"><title>140175364478416&#45;&gt;140175364480544</title>
<g id="a_edge13"><a xlink:title="shift&#45;left &#45;&gt; shift&#45;right&#45;arithmetic">
<path fill="none" stroke="black" d="M347.324,-806.489C353.58,-794.811 361.935,-779.216 368.986,-766.053"/>
<polygon fill="black" stroke="black" points="372.205,-767.457 373.842,-756.989 366.034,-764.151 372.205,-767.457"/>
</a>
</g>
<text text-anchor="middle" x="372.733" y="-773.258" font-family="Times,serif" font-size="14.00">0</text>
</g>
<!-- 140175364484032 -->
<g id="node15" class="node"><title>140175364484032</title>
<g id="a_node15"><a xlink:title=" ">
<polygon fill="#fff9c4" stroke="#cbc693" points="535,-670.894 409,-670.894 409,-634.894 535,-634.894 535,-670.894"/>
<text text-anchor="start" x="461" y="-656.694" font-family="Times,serif" font-weight="bold" font-size="14.00">and</text>
<text text-anchor="start" x="417" y="-642.694" font-family="Times,serif" font-size="14.00">s64[10000,10]{1,0}</text>
</a>
</g>
</g>
<!-- 140175364480544&#45;&gt;140175364484032 -->
<g id="edge15" class="edge"><title>140175364480544&#45;&gt;140175364484032</title>
<g id="a_edge15"><a xlink:title="shift&#45;right&#45;arithmetic &#45;&gt; and">
<path fill="none" stroke="black" d="M401.441,-720.489C414.415,-708.244 431.951,-691.693 446.296,-678.154"/>
<polygon fill="black" stroke="black" points="449.017,-680.398 453.887,-670.989 444.213,-675.308 449.017,-680.398"/>
</a>
</g>
<text text-anchor="middle" x="446.507" y="-685.877" font-family="Times,serif" font-size="14.00">0</text>
</g>
<!-- 140175364482832 -->
<g id="node14" class="node"><title>140175364482832</title>
<g id="a_node14"><a xlink:title=" ">
<polygon fill="#c8e6c9" stroke="#97b498" points="653,-770.894 471,-770.894 471,-706.894 653,-706.894 653,-770.894"/>
<text text-anchor="start" x="528" y="-756.694" font-family="Times,serif" font-weight="bold" font-size="14.00">broadcast.4</text>
<text text-anchor="start" x="516.5" y="-742.694" font-family="Times,serif" font-size="14.00">dimensions={1}</text>
<text text-anchor="start" x="507" y="-728.694" font-family="Times,serif" font-size="14.00">s64[10000,10]{1,0}</text>
<text text-anchor="start" x="479" y="-714.694" font-family="Times,serif" font-weight="bold" font-size="14.00">operand</text>
<text text-anchor="start" x="528" y="-714.694" font-family="Times,serif" font-size="14.00"> = constant.4 s64[10]</text>
</a>
</g>
</g>
<!-- 140175364482832&#45;&gt;140175364484032 -->
<g id="edge16" class="edge"><title>140175364482832&#45;&gt;140175364484032</title>
<g id="a_edge16"><a xlink:title="broadcast.4 &#45;&gt; and">
<path fill="none" stroke="black" d="M528.743,-706.854C518.47,-697.266 507.319,-686.859 497.644,-677.828"/>
<polygon fill="black" stroke="black" points="499.944,-675.187 490.245,-670.923 495.167,-680.304 499.944,-675.187"/>
</a>
</g>
<text text-anchor="middle" x="509.263" y="-673.411" font-family="Times,serif" font-size="14.00">1</text>
</g>
<!-- 140175364485072 -->
<g id="node16" class="node"><title>140175364485072</title>
<g id="a_node16"><a xlink:title=" ">
<polygon fill="#e1bee7" stroke="#af8eb5" points="604.5,-598.894 339.5,-598.894 339.5,-520.894 604.5,-520.894 604.5,-598.894"/>
<text text-anchor="start" x="447" y="-584.694" font-family="Times,serif" font-weight="bold" font-size="14.00">reduce.1</text>
<text text-anchor="start" x="410.5" y="-570.694" font-family="Times,serif" font-size="14.00">Subcomputation: </text>
<text text-anchor="start" x="507.5" y="-570.694" font-family="Times,serif" font-weight="bold" font-size="14.00">max</text>
<text text-anchor="start" x="426.5" y="-556.694" font-family="Times,serif" font-size="14.00">dimensions={1}</text>
<text text-anchor="start" x="441" y="-542.694" font-family="Times,serif" font-size="14.00">s64[10000]</text>
<text text-anchor="start" x="347.5" y="-528.694" font-family="Times,serif" font-weight="bold" font-size="14.00">operand 1</text>
<text text-anchor="start" x="406.5" y="-528.694" font-family="Times,serif" font-size="14.00"> = &#45;9223372036854775808 (s64[])</text>
</a>
</g>
</g>
<!-- 140175364484032&#45;&gt;140175364485072 -->
<g id="edge17" class="edge"><title>140175364484032&#45;&gt;140175364485072</title>
<g id="a_edge17"><a xlink:title="and &#45;&gt; reduce.1">
<path fill="none" stroke="black" d="M472,-634.777C472,-627.367 472,-618.284 472,-609.054"/>
<polygon fill="black" stroke="black" points="475.5,-609.053 472,-599.053 468.5,-609.054 475.5,-609.053"/>
</a>
</g>
<text text-anchor="middle" x="480.452" y="-613.48" font-family="Times,serif" font-size="14.00">0</text>
</g>
<!-- 140175364487536 -->
<g id="node18" class="node"><title>140175364487536</title>
<g id="a_node18"><a xlink:title=" ">
<polygon fill="#fff9c4" stroke="#cbc693" points="610.5,-484.894 527.5,-484.894 527.5,-448.894 610.5,-448.894 610.5,-484.894"/>
<text text-anchor="start" x="540" y="-470.694" font-family="Times,serif" font-weight="bold" font-size="14.00">equal&#45;to.1</text>
<text text-anchor="start" x="535.5" y="-456.694" font-family="Times,serif" font-size="14.00">pred[10000]</text>
</a>
</g>
</g>
<!-- 140175364485072&#45;&gt;140175364487536 -->
<g id="edge18" class="edge"><title>140175364485072&#45;&gt;140175364487536</title>
<g id="a_edge18"><a xlink:title="reduce.1 &#45;&gt; equal&#45;to.1">
<path fill="none" stroke="black" d="M512.575,-520.829C522.958,-511.088 533.839,-500.88 543.245,-492.056"/>
<polygon fill="black" stroke="black" points="545.857,-494.405 550.755,-485.01 541.067,-489.3 545.857,-494.405"/>
</a>
</g>
<text text-anchor="middle" x="543.319" y="-499.876" font-family="Times,serif" font-size="14.00">0</text>
</g>
<!-- 140175364486464 -->
<g id="node17" class="node"><title>140175364486464</title>
<g id="a_node17"><a xlink:title=" ">
<polygon fill="#ffe0b2" stroke="#cbae82" points="711.5,-577.894 622.5,-577.894 622.5,-541.894 711.5,-541.894 711.5,-577.894"/>
<text text-anchor="start" x="630.5" y="-563.694" font-family="Times,serif" font-weight="bold" font-size="14.00">Parameter 3</text>
<text text-anchor="start" x="636" y="-549.694" font-family="Times,serif" font-size="14.00">s64[10000]</text>
</a>
</g>
</g>
<!-- 140175364486464&#45;&gt;140175364487536 -->
<g id="edge19" class="edge"><title>140175364486464&#45;&gt;140175364487536</title>
<g id="a_edge19"><a xlink:title="arg3 &#45;&gt; equal&#45;to.1">
<path fill="none" stroke="black" d="M648.567,-541.777C633.373,-527.669 611.651,-507.498 594.741,-491.796"/>
<polygon fill="black" stroke="black" points="597.06,-489.173 587.35,-484.934 592.297,-494.303 597.06,-489.173"/>
</a>
</g>
<text text-anchor="middle" x="606.385" y="-487.374" font-family="Times,serif" font-size="14.00">1</text>
</g>
<!-- 140175364488720 -->
<g id="node19" class="node"><title>140175364488720</title>
<g id="a_node19"><a xlink:title=" ">
<polygon fill="#fff9c4" stroke="#cbc693" points="607.5,-412.894 530.5,-412.894 530.5,-376.894 607.5,-376.894 607.5,-412.894"/>
<text text-anchor="start" x="541.5" y="-398.694" font-family="Times,serif" font-weight="bold" font-size="14.00">convert.1</text>
<text text-anchor="start" x="538.5" y="-384.694" font-family="Times,serif" font-size="14.00">f32[10000]</text>
</a>
</g>
</g>
<!-- 140175364487536&#45;&gt;140175364488720 -->
<g id="edge20" class="edge"><title>140175364487536&#45;&gt;140175364488720</title>
<g id="a_edge20"><a xlink:title="equal&#45;to.1 &#45;&gt; convert.1">
<path fill="none" stroke="black" d="M569,-448.591C569,-440.877 569,-431.606 569,-423.006"/>
<polygon fill="black" stroke="black" points="572.5,-422.998 569,-412.998 565.5,-422.998 572.5,-422.998"/>
</a>
</g>
</g>
<!-- 140175364489920 -->
<g id="node20" class="node"><title>140175364489920</title>
<g id="a_node20"><a xlink:title=" ">
<polygon fill="#e1bee7" stroke="#af8eb5" points="638,-340.894 500,-340.894 500,-262.894 638,-262.894 638,-340.894"/>
<text text-anchor="start" x="544" y="-326.694" font-family="Times,serif" font-weight="bold" font-size="14.00">reduce.2</text>
<text text-anchor="start" x="509.5" y="-312.694" font-family="Times,serif" font-size="14.00">Subcomputation: </text>
<text text-anchor="start" x="606.5" y="-312.694" font-family="Times,serif" font-weight="bold" font-size="14.00">add</text>
<text text-anchor="start" x="523.5" y="-298.694" font-family="Times,serif" font-size="14.00">dimensions={0}</text>
<text text-anchor="start" x="555" y="-284.694" font-family="Times,serif" font-size="14.00">f32[]</text>
<text text-anchor="start" x="508" y="-270.694" font-family="Times,serif" font-weight="bold" font-size="14.00">operand 1</text>
<text text-anchor="start" x="567" y="-270.694" font-family="Times,serif" font-size="14.00"> = 0 (f32[])</text>
</a>
</g>
</g>
<!-- 140175364488720&#45;&gt;140175364489920 -->
<g id="edge21" class="edge"><title>140175364488720&#45;&gt;140175364489920</title>
<g id="a_edge21"><a xlink:title="convert.1 &#45;&gt; reduce.2">
<path fill="none" stroke="black" d="M569,-376.777C569,-369.367 569,-360.284 569,-351.054"/>
<polygon fill="black" stroke="black" points="572.5,-351.053 569,-341.053 565.5,-351.054 572.5,-351.053"/>
</a>
</g>
<text text-anchor="middle" x="577.452" y="-355.48" font-family="Times,serif" font-size="14.00">0</text>
</g>
<!-- 140175364506384 -->
<g id="node22" class="node"><title>140175364506384</title>
<g id="a_node22"><a xlink:title=" ">
<polygon fill="white" stroke="black" points="653.5,-226.894 484.5,-226.894 484.5,-176.894 653.5,-176.894 653.5,-226.894"/>
<text text-anchor="start" x="544" y="-212.694" font-family="Times,serif" font-weight="bold" font-size="14.00">multiply</text>
<text text-anchor="start" x="555" y="-198.694" font-family="Times,serif" font-size="14.00">f32[]</text>
<text text-anchor="start" x="492.5" y="-184.694" font-family="Times,serif" font-weight="bold" font-size="14.00">operand 1</text>
<text text-anchor="start" x="551.5" y="-184.694" font-family="Times,serif" font-size="14.00"> = 0.0001 (f32[])</text>
</a>
</g>
</g>
<!-- 140175364489920&#45;&gt;140175364506384 -->
<g id="edge23" class="edge"><title>140175364489920&#45;&gt;140175364506384</title>
<g id="a_edge23"><a xlink:title="reduce.2 &#45;&gt; multiply">
<path fill="none" stroke="black" d="M569,-262.724C569,-254.259 569,-245.341 569,-237.049"/>
<polygon fill="black" stroke="black" points="572.5,-236.961 569,-226.962 565.5,-236.962 572.5,-236.961"/>
</a>
</g>
<text text-anchor="middle" x="577.452" y="-241.388" font-family="Times,serif" font-size="14.00">0</text>
</g>
<!-- 140175364496192 -->
<g id="node21" class="node"><title>140175364496192</title>
<g id="a_node21"><a xlink:title=" ">
<polygon fill="white" stroke="black" points="597,-140.894 541,-140.894 541,-104.894 597,-104.894 597,-140.894"/>
<text text-anchor="start" x="549" y="-126.694" font-family="Times,serif" font-weight="bold" font-size="14.00">tuple.1</text>
<text text-anchor="start" x="550.5" y="-112.694" font-family="Times,serif" font-size="14.00">(f32[])</text>
</a>
</g>
</g>
<!-- cluster_140175364480368 -->
<g id="node23" class="node"><title>cluster_140175364480368</title>
<g id="a_node23"><a xlink:title=" ">
<ellipse fill="#bcaaa4" stroke="#8c7b75" cx="569" cy="-34.4469" rx="34.394" ry="34.394"/>
<text text-anchor="start" x="550.5" y="-30.7469" font-family="Times,serif" font-size="14.00">ROOT</text>
</a>
</g>
</g>
<!-- 140175364496192&#45;&gt;cluster_140175364480368 -->
<g id="edge24" class="edge"><title>140175364496192&#45;&gt;cluster_140175364480368</title>
<g id="a_edge24"><a xlink:title=" ">
<path fill="none" stroke="black" d="M569,-104.815C569,-97.3786 569,-88.2886 569,-79.1691"/>
<polygon fill="black" stroke="black" points="572.5,-78.9469 569,-68.9469 565.5,-78.9469 572.5,-78.9469"/>
</a>
</g>
</g>
<!-- 140175364506384&#45;&gt;140175364496192 -->
<g id="edge22" class="edge"><title>140175364506384&#45;&gt;140175364496192</title>
<g id="a_edge22"><a xlink:title="multiply &#45;&gt; tuple.1">
<path fill="none" stroke="black" d="M569,-176.531C569,-168.565 569,-159.663 569,-151.478"/>
<polygon fill="black" stroke="black" points="572.5,-151.27 569,-141.27 565.5,-151.27 572.5,-151.27"/>
</a>
</g>
</g>
</g>
</svg>
