<?xml version="1.0" encoding="UTF-8" standalone="no"?>
<!DOCTYPE svg PUBLIC "-//W3C//DTD SVG 1.1//EN"
 "http://www.w3.org/Graphics/SVG/1.1/DTD/svg11.dtd">
<!-- Generated by graphviz version 2.38.0 (20140413.2041)
 -->
<!-- Title: G Pages: 1 -->
<svg width="743pt" height="1810pt"
 viewBox="0.00 0.00 743.00 1809.89" xmlns="http://www.w3.org/2000/svg" xmlns:xlink="http://www.w3.org/1999/xlink">
<g id="graph0" class="graph" transform="scale(1 1) rotate(0) translate(4 1805.89)">
<title>G</title>
<g id="a_graph0"><a xlink:title=" ">
<polygon fill="white" stroke="none" points="-4,4 -4,-1805.89 739,-1805.89 739,4 -4,4"/>
<text text-anchor="start" x="205" y="-1787.69" font-family="Times,serif" font-weight="bold" font-size="14.00">GPU&#45;ir&#45;emit&#45;prepare: after copy&#45;insertion, pipeline end</text>
<text text-anchor="start" x="47" y="-1773.69" font-family="Times,serif" font-weight="bold" font-size="14.00">Computation cluster_1__XlaCompiledKernel_true__XlaNumConstantArgs_0__XlaNumResourceArgs_0_.v28</text>
</a>
</g>
<g id="clust1" class="cluster"><title>cluster_140175364401632</title>
<g id="a_clust1"><a xlink:title=" ">
<path fill="#f5f5f5" stroke="#c2c2c2" stroke-width="2" d="M376,-254.894C376,-254.894 580,-254.894 580,-254.894 586,-254.894 592,-260.894 592,-266.894 592,-266.894 592,-602.894 592,-602.894 592,-608.894 586,-614.894 580,-614.894 580,-614.894 376,-614.894 376,-614.894 370,-614.894 364,-608.894 364,-602.894 364,-602.894 364,-266.894 364,-266.894 364,-260.894 370,-254.894 376,-254.894"/>
<text text-anchor="start" x="401" y="-600.694" font-family="Times,serif" font-size="14.00">Fused expression for </text>
<text text-anchor="start" x="519" y="-600.694" font-family="Times,serif" font-weight="bold" font-size="14.00">fusion</text>
<text text-anchor="start" x="445" y="-586.694" font-family="Times,serif" font-size="14.00">input fusion</text>
<text text-anchor="start" x="444" y="-572.694" font-family="Times,serif" font-size="14.00">kind=kInput</text>
</a>
</g>
</g>
<g id="clust2" class="cluster"><title>cluster_140175364496032</title>
<g id="a_clust2"><a xlink:title=" ">
<path fill="#f5f5f5" stroke="#c2c2c2" stroke-width="2" d="M184,-622.894C184,-622.894 533,-622.894 533,-622.894 539,-622.894 545,-628.894 545,-634.894 545,-634.894 545,-1242.89 545,-1242.89 545,-1248.89 539,-1254.89 533,-1254.89 533,-1254.89 184,-1254.89 184,-1254.89 178,-1254.89 172,-1248.89 172,-1242.89 172,-1242.89 172,-634.894 172,-634.894 172,-628.894 178,-622.894 184,-622.894"/>
<text text-anchor="start" x="276.5" y="-1240.69" font-family="Times,serif" font-size="14.00">Fused expression for </text>
<text text-anchor="start" x="394.5" y="-1240.69" font-family="Times,serif" font-weight="bold" font-size="14.00">fusion.1</text>
<text text-anchor="start" x="325.5" y="-1226.69" font-family="Times,serif" font-size="14.00">input fusion</text>
<text text-anchor="start" x="324.5" y="-1212.69" font-family="Times,serif" font-size="14.00">kind=kInput</text>
</a>
</g>
</g>
<g id="clust3" class="cluster"><title>cluster_140175364484032</title>
<g id="a_clust3"><a xlink:title=" ">
<path fill="#f5f5f5" stroke="#c2c2c2" stroke-width="2" d="M336,-1454.89C336,-1454.89 578,-1454.89 578,-1454.89 584,-1454.89 590,-1460.89 590,-1466.89 590,-1466.89 590,-1709.89 590,-1709.89 590,-1715.89 584,-1721.89 578,-1721.89 578,-1721.89 336,-1721.89 336,-1721.89 330,-1721.89 324,-1715.89 324,-1709.89 324,-1709.89 324,-1466.89 324,-1466.89 324,-1460.89 330,-1454.89 336,-1454.89"/>
<text text-anchor="start" x="375" y="-1707.69" font-family="Times,serif" font-size="14.00">Fused expression for </text>
<text text-anchor="start" x="493" y="-1707.69" font-family="Times,serif" font-weight="bold" font-size="14.00">fusion.2</text>
<text text-anchor="start" x="426" y="-1693.69" font-family="Times,serif" font-size="14.00">loop fusion</text>
<text text-anchor="start" x="423" y="-1679.69" font-family="Times,serif" font-size="14.00">kind=kLoop</text>
</a>
</g>
</g>
<!-- 140175364415776 -->
<g id="node1" class="node"><title>140175364415776</title>
<g id="a_node1"><a xlink:title=" ">
<polygon fill="#ffe0b2" stroke="#cbae82" points="154,-1765.89 22,-1765.89 22,-1729.89 154,-1729.89 154,-1765.89"/>
<text text-anchor="start" x="51.5" y="-1751.69" font-family="Times,serif" font-weight="bold" font-size="14.00">Parameter 2</text>
<text text-anchor="start" x="30" y="-1737.69" font-family="Times,serif" font-size="14.00">f32[10000,784]{1,0}</text>
</a>
</g>
</g>
<!-- 140175364430736 -->
<g id="node3" class="node"><title>140175364430736</title>
<g id="a_node3"><a xlink:title=" ">
<polygon fill="#1565c0" stroke="#003c8f" points="316,-1670.89 2.84217e-14,-1670.89 2.84217e-14,-1620.89 316,-1620.89 316,-1670.89"/>
<text text-anchor="start" x="148.5" y="-1656.69" font-family="Times,serif" font-weight="bold" font-size="14.00" fill="white">dot</text>
<text text-anchor="start" x="8" y="-1642.69" font-family="Times,serif" font-size="14.00" fill="white">lhs_contracting_dims={1}, rhs_contracting_dims={0}</text>
<text text-anchor="start" x="103.5" y="-1628.69" font-family="Times,serif" font-size="14.00" fill="white">f32[10000,10]{1,0}</text>
</a>
</g>
</g>
<!-- 140175364415776&#45;&gt;140175364430736 -->
<g id="edge1" class="edge"><title>140175364415776&#45;&gt;140175364430736</title>
<g id="a_edge1"><a xlink:title="arg2 &#45;&gt; dot">
<path fill="none" stroke="black" d="M100.193,-1729.48C109.8,-1715.75 123.467,-1696.23 135.1,-1679.61"/>
<polygon fill="black" stroke="black" points="138.098,-1681.43 140.966,-1671.23 132.364,-1677.41 138.098,-1681.43"/>
</a>
</g>
<text text-anchor="middle" x="137.495" y="-1687.23" font-family="Times,serif" font-size="14.00">0</text>
</g>
<!-- 140175364416752 -->
<g id="node2" class="node"><title>140175364416752</title>
<g id="a_node2"><a xlink:title=" ">
<polygon fill="#ffe0b2" stroke="#cbae82" points="284,-1765.89 172,-1765.89 172,-1729.89 284,-1729.89 284,-1765.89"/>
<text text-anchor="start" x="191.5" y="-1751.69" font-family="Times,serif" font-weight="bold" font-size="14.00">Parameter 1</text>
<text text-anchor="start" x="180" y="-1737.69" font-family="Times,serif" font-size="14.00">f32[784,10]{1,0}</text>
</a>
</g>
</g>
<!-- 140175364416752&#45;&gt;140175364430736 -->
<g id="edge2" class="edge"><title>140175364416752&#45;&gt;140175364430736</title>
<g id="a_edge2"><a xlink:title="arg1 &#45;&gt; dot">
<path fill="none" stroke="black" d="M215.807,-1729.48C206.2,-1715.75 192.533,-1696.23 180.9,-1679.61"/>
<polygon fill="black" stroke="black" points="183.636,-1677.41 175.034,-1671.23 177.902,-1681.43 183.636,-1677.41"/>
</a>
</g>
<text text-anchor="middle" x="192.354" y="-1677.53" font-family="Times,serif" font-size="14.00">1</text>
</g>
<!-- 140175364518384 -->
<g id="node30" class="node"><title>140175364518384</title>
<g id="a_node30"><a xlink:title=" ">
<polygon fill="#ffe0b2" stroke="#cbae82" points="457.5,-1577.89 332.5,-1577.89 332.5,-1541.89 457.5,-1541.89 457.5,-1577.89"/>
<text text-anchor="start" x="358.5" y="-1563.69" font-family="Times,serif" font-weight="bold" font-size="14.00">Parameter 0</text>
<text text-anchor="start" x="340.5" y="-1549.69" font-family="Times,serif" font-size="14.00">f32[10000,10]{1,0}</text>
</a>
</g>
</g>
<!-- 140175364430736&#45;&gt;140175364518384 -->
<g id="edge31" class="edge"><title>140175364430736&#45;&gt;140175364518384</title>
<g id="a_edge31"><a xlink:title="dot &#45;&gt; dot.param_0">
<path fill="none" stroke="black" d="M225.915,-1620.82C261.147,-1608.34 303.723,-1593.25 337.337,-1581.33"/>
<polygon fill="black" stroke="black" points="338.758,-1584.54 347.014,-1577.9 336.419,-1577.94 338.758,-1584.54"/>
</a>
</g>
</g>
<!-- 140175364432208 -->
<g id="node4" class="node"><title>140175364432208</title>
<g id="a_node4"><a xlink:title=" ">
<polygon fill="#ffe0b2" stroke="#cbae82" points="573.5,-1765.89 484.5,-1765.89 484.5,-1729.89 573.5,-1729.89 573.5,-1765.89"/>
<text text-anchor="start" x="492.5" y="-1751.69" font-family="Times,serif" font-weight="bold" font-size="14.00">Parameter 0</text>
<text text-anchor="start" x="508.5" y="-1737.69" font-family="Times,serif" font-size="14.00">f32[10]</text>
</a>
</g>
</g>
<!-- 140175364519600 -->
<g id="node32" class="node"><title>140175364519600</title>
<g id="a_node32"><a xlink:title=" ">
<polygon fill="#ffe0b2" stroke="#cbae82" points="573.5,-1663.89 484.5,-1663.89 484.5,-1627.89 573.5,-1627.89 573.5,-1663.89"/>
<text text-anchor="start" x="492.5" y="-1649.69" font-family="Times,serif" font-weight="bold" font-size="14.00">Parameter 1</text>
<text text-anchor="start" x="508.5" y="-1635.69" font-family="Times,serif" font-size="14.00">f32[10]</text>
</a>
</g>
</g>
<!-- 140175364432208&#45;&gt;140175364519600 -->
<g id="edge33" class="edge"><title>140175364432208&#45;&gt;140175364519600</title>
<g id="a_edge33"><a xlink:title="arg0 &#45;&gt; arg0.param_1">
<path fill="none" stroke="black" d="M529,-1729.48C529,-1714.28 529,-1691.96 529,-1674.36"/>
<polygon fill="black" stroke="black" points="532.5,-1674.11 529,-1664.11 525.5,-1674.11 532.5,-1674.11"/>
</a>
</g>
</g>
<!-- 140175364474000 -->
<g id="node5" class="node"><title>140175364474000</title>
<g id="a_node5"><a xlink:title=" ">
<polygon fill="#e1bee7" stroke="#af8eb5" points="361.5,-1426.89 210.5,-1426.89 210.5,-1348.89 361.5,-1348.89 361.5,-1426.89"/>
<text text-anchor="start" x="266" y="-1412.69" font-family="Times,serif" font-weight="bold" font-size="14.00">reduce</text>
<text text-anchor="start" x="224.5" y="-1398.69" font-family="Times,serif" font-size="14.00">Subcomputation: </text>
<text text-anchor="start" x="321.5" y="-1398.69" font-family="Times,serif" font-weight="bold" font-size="14.00">max</text>
<text text-anchor="start" x="240.5" y="-1384.69" font-family="Times,serif" font-size="14.00">dimensions={1}</text>
<text text-anchor="start" x="255.5" y="-1370.69" font-family="Times,serif" font-size="14.00">f32[10000]</text>
<text text-anchor="start" x="218.5" y="-1356.69" font-family="Times,serif" font-weight="bold" font-size="14.00">operand 1</text>
<text text-anchor="start" x="277.5" y="-1356.69" font-family="Times,serif" font-size="14.00"> = &#45;inf (f32[])</text>
</a>
</g>
</g>
<!-- 140175364474736 -->
<g id="node6" class="node"><title>140175364474736</title>
<g id="a_node6"><a xlink:title=" ">
<polygon fill="#c8e6c9" stroke="#97b498" points="330.5,-1312.89 205.5,-1312.89 205.5,-1262.89 330.5,-1262.89 330.5,-1312.89"/>
<text text-anchor="start" x="234" y="-1298.69" font-family="Times,serif" font-weight="bold" font-size="14.00">broadcast.1</text>
<text text-anchor="start" x="222.5" y="-1284.69" font-family="Times,serif" font-size="14.00">dimensions={0}</text>
<text text-anchor="start" x="213.5" y="-1270.69" font-family="Times,serif" font-size="14.00">f32[10000,10]{1,0}</text>
</a>
</g>
</g>
<!-- 140175364474000&#45;&gt;140175364474736 -->
<g id="edge4" class="edge"><title>140175364474000&#45;&gt;140175364474736</title>
<g id="a_edge4"><a xlink:title="reduce &#45;&gt; broadcast.1">
<path fill="none" stroke="black" d="M278.989,-1348.72C277.434,-1340.26 275.796,-1331.34 274.273,-1323.05"/>
<polygon fill="black" stroke="black" points="277.67,-1322.16 272.421,-1312.96 270.785,-1323.43 277.67,-1322.16"/>
</a>
</g>
</g>
<!-- 140175364515616 -->
<g id="node28" class="node"><title>140175364515616</title>
<g id="a_node28"><a xlink:title=" ">
<polygon fill="#ffe0b2" stroke="#cbae82" points="322.5,-1196.89 197.5,-1196.89 197.5,-1160.89 322.5,-1160.89 322.5,-1196.89"/>
<text text-anchor="start" x="223.5" y="-1182.69" font-family="Times,serif" font-weight="bold" font-size="14.00">Parameter 4</text>
<text text-anchor="start" x="205.5" y="-1168.69" font-family="Times,serif" font-size="14.00">f32[10000,10]{1,0}</text>
</a>
</g>
</g>
<!-- 140175364474736&#45;&gt;140175364515616 -->
<g id="edge28" class="edge"><title>140175364474736&#45;&gt;140175364515616</title>
<g id="a_edge28"><a xlink:title="broadcast.1 &#45;&gt; broadcast.1.param_4">
<path fill="none" stroke="black" d="M266.205,-1262.88C264.969,-1246.35 263.324,-1224.35 262.039,-1207.16"/>
<polygon fill="black" stroke="black" points="265.528,-1206.88 261.292,-1197.17 258.547,-1207.4 265.528,-1206.88"/>
</a>
</g>
</g>
<!-- 140175364477680 -->
<g id="node7" class="node"><title>140175364477680</title>
<g id="a_node7"><a xlink:title=" ">
<polygon fill="#c8e6c9" stroke="#97b498" points="688.5,-1124.89 553.5,-1124.89 553.5,-1060.89 688.5,-1060.89 688.5,-1124.89"/>
<text text-anchor="start" x="587" y="-1110.69" font-family="Times,serif" font-weight="bold" font-size="14.00">broadcast.2</text>
<text text-anchor="start" x="578.5" y="-1096.69" font-family="Times,serif" font-size="14.00">dimensions={}</text>
<text text-anchor="start" x="566" y="-1082.69" font-family="Times,serif" font-size="14.00">s64[10000,10]{1,0}</text>
<text text-anchor="start" x="561.5" y="-1068.69" font-family="Times,serif" font-weight="bold" font-size="14.00">operand</text>
<text text-anchor="start" x="610.5" y="-1068.69" font-family="Times,serif" font-size="14.00"> = 63 (s64[])</text>
</a>
</g>
</g>
<!-- 140175364512848 -->
<g id="node24" class="node"><title>140175364512848</title>
<g id="a_node24"><a xlink:title=" ">
<polygon fill="#ffe0b2" stroke="#cbae82" points="453,-1024.89 327,-1024.89 327,-988.894 453,-988.894 453,-1024.89"/>
<text text-anchor="start" x="353.5" y="-1010.69" font-family="Times,serif" font-weight="bold" font-size="14.00">Parameter 2</text>
<text text-anchor="start" x="335" y="-996.694" font-family="Times,serif" font-size="14.00">s64[10000,10]{1,0}</text>
</a>
</g>
</g>
<!-- 140175364477680&#45;&gt;140175364512848 -->
<g id="edge23" class="edge"><title>140175364477680&#45;&gt;140175364512848</title>
<g id="a_edge23"><a xlink:title="broadcast.2 &#45;&gt; broadcast.2.param_3.1">
<path fill="none" stroke="black" d="M553.231,-1062.53C551.81,-1061.97 550.399,-1061.43 549,-1060.89 518.221,-1049.16 483.572,-1037.44 454.494,-1028.02"/>
<polygon fill="black" stroke="black" points="455.452,-1024.65 444.86,-1024.91 453.304,-1031.31 455.452,-1024.65"/>
</a>
</g>
</g>
<!-- 140175364482832 -->
<g id="node8" class="node"><title>140175364482832</title>
<g id="a_node8"><a xlink:title=" ">
<polygon fill="#c8e6c9" stroke="#97b498" points="735,-952.894 553,-952.894 553,-888.894 735,-888.894 735,-952.894"/>
<text text-anchor="start" x="610" y="-938.694" font-family="Times,serif" font-weight="bold" font-size="14.00">broadcast.4</text>
<text text-anchor="start" x="598.5" y="-924.694" font-family="Times,serif" font-size="14.00">dimensions={1}</text>
<text text-anchor="start" x="589" y="-910.694" font-family="Times,serif" font-size="14.00">s64[10000,10]{1,0}</text>
<text text-anchor="start" x="561" y="-896.694" font-family="Times,serif" font-weight="bold" font-size="14.00">operand</text>
<text text-anchor="start" x="610" y="-896.694" font-family="Times,serif" font-size="14.00"> = constant.4 s64[10]</text>
</a>
</g>
</g>
<!-- 140175364510816 -->
<g id="node22" class="node"><title>140175364510816</title>
<g id="a_node22"><a xlink:title=" ">
<polygon fill="#ffe0b2" stroke="#cbae82" points="509,-852.894 383,-852.894 383,-816.894 509,-816.894 509,-852.894"/>
<text text-anchor="start" x="409.5" y="-838.694" font-family="Times,serif" font-weight="bold" font-size="14.00">Parameter 1</text>
<text text-anchor="start" x="391" y="-824.694" font-family="Times,serif" font-size="14.00">s64[10000,10]{1,0}</text>
</a>
</g>
</g>
<!-- 140175364482832&#45;&gt;140175364510816 -->
<g id="edge20" class="edge"><title>140175364482832&#45;&gt;140175364510816</title>
<g id="a_edge20"><a xlink:title="broadcast.4 &#45;&gt; broadcast.4.param_2.1">
<path fill="none" stroke="black" d="M570.835,-888.854C545.773,-878.222 518.336,-866.582 495.583,-856.929"/>
<polygon fill="black" stroke="black" points="496.712,-853.606 486.139,-852.923 493.978,-860.05 496.712,-853.606"/>
</a>
</g>
</g>
<!-- 140175364486464 -->
<g id="node9" class="node"><title>140175364486464</title>
<g id="a_node9"><a xlink:title=" ">
<polygon fill="#ffe0b2" stroke="#cbae82" points="641.5,-680.894 552.5,-680.894 552.5,-644.894 641.5,-644.894 641.5,-680.894"/>
<text text-anchor="start" x="560.5" y="-666.694" font-family="Times,serif" font-weight="bold" font-size="14.00">Parameter 3</text>
<text text-anchor="start" x="566" y="-652.694" font-family="Times,serif" font-size="14.00">s64[10000]</text>
</a>
</g>
</g>
<!-- 140175364508000 -->
<g id="node17" class="node"><title>140175364508000</title>
<g id="a_node17"><a xlink:title=" ">
<polygon fill="#ffe0b2" stroke="#cbae82" points="575.5,-556.894 486.5,-556.894 486.5,-520.894 575.5,-520.894 575.5,-556.894"/>
<text text-anchor="start" x="494.5" y="-542.694" font-family="Times,serif" font-weight="bold" font-size="14.00">Parameter 2</text>
<text text-anchor="start" x="500" y="-528.694" font-family="Times,serif" font-size="14.00">s64[10000]</text>
</a>
</g>
</g>
<!-- 140175364486464&#45;&gt;140175364508000 -->
<g id="edge13" class="edge"><title>140175364486464&#45;&gt;140175364508000</title>
<g id="a_edge13"><a xlink:title="arg3 &#45;&gt; arg3.param_2">
<path fill="none" stroke="black" d="M587.684,-644.673C576.579,-624.146 557.912,-589.641 545.052,-565.869"/>
<polygon fill="black" stroke="black" points="548.105,-564.157 540.269,-557.027 541.949,-567.488 548.105,-564.157"/>
</a>
</g>
</g>
<!-- 140175364496192 -->
<g id="node10" class="node"><title>140175364496192</title>
<g id="a_node10"><a xlink:title=" ">
<polygon fill="white" stroke="black" points="506,-140.894 450,-140.894 450,-104.894 506,-104.894 506,-140.894"/>
<text text-anchor="start" x="458" y="-126.694" font-family="Times,serif" font-weight="bold" font-size="14.00">tuple.1</text>
<text text-anchor="start" x="459.5" y="-112.694" font-family="Times,serif" font-size="14.00">(f32[])</text>
</a>
</g>
</g>
<!-- cluster_140175364480368 -->
<g id="node33" class="node"><title>cluster_140175364480368</title>
<g id="a_node33"><a xlink:title=" ">
<ellipse fill="#bcaaa4" stroke="#8c7b75" cx="478" cy="-34.4469" rx="34.394" ry="34.394"/>
<text text-anchor="start" x="459.5" y="-30.7469" font-family="Times,serif" font-size="14.00">ROOT</text>
</a>
</g>
</g>
<!-- 140175364496192&#45;&gt;cluster_140175364480368 -->
<g id="edge34" class="edge"><title>140175364496192&#45;&gt;cluster_140175364480368</title>
<g id="a_edge34"><a xlink:title=" ">
<path fill="none" stroke="black" d="M478,-104.815C478,-97.3786 478,-88.2886 478,-79.1691"/>
<polygon fill="black" stroke="black" points="481.5,-78.9469 478,-68.9469 474.5,-78.9469 481.5,-78.9469"/>
</a>
</g>
</g>
<!-- 140175364506384 -->
<g id="node11" class="node"><title>140175364506384</title>
<g id="a_node11"><a xlink:title=" ">
<polygon fill="white" stroke="black" points="562.5,-226.894 393.5,-226.894 393.5,-176.894 562.5,-176.894 562.5,-226.894"/>
<text text-anchor="start" x="453" y="-212.694" font-family="Times,serif" font-weight="bold" font-size="14.00">multiply</text>
<text text-anchor="start" x="464" y="-198.694" font-family="Times,serif" font-size="14.00">f32[]</text>
<text text-anchor="start" x="401.5" y="-184.694" font-family="Times,serif" font-weight="bold" font-size="14.00">operand 1</text>
<text text-anchor="start" x="460.5" y="-184.694" font-family="Times,serif" font-size="14.00"> = 0.0001 (f32[])</text>
</a>
</g>
</g>
<!-- 140175364506384&#45;&gt;140175364496192 -->
<g id="edge5" class="edge"><title>140175364506384&#45;&gt;140175364496192</title>
<g id="a_edge5"><a xlink:title="multiply &#45;&gt; tuple.1">
<path fill="none" stroke="black" d="M478,-176.531C478,-168.565 478,-159.663 478,-151.478"/>
<polygon fill="black" stroke="black" points="481.5,-151.27 478,-141.27 474.5,-151.27 481.5,-151.27"/>
</a>
</g>
</g>
<!-- 140175364499392 -->
<g id="node12" class="node"><title>140175364499392</title>
<g id="a_node12"><a xlink:title=" ">
<polygon fill="#e1bee7" stroke="#af8eb5" points="545.5,-326.894 410.5,-326.894 410.5,-262.894 545.5,-262.894 545.5,-326.894"/>
<text text-anchor="start" x="453" y="-312.694" font-family="Times,serif" font-weight="bold" font-size="14.00">reduce.3</text>
<text text-anchor="start" x="418.5" y="-298.694" font-family="Times,serif" font-size="14.00">Subcomputation: </text>
<text text-anchor="start" x="515.5" y="-298.694" font-family="Times,serif" font-weight="bold" font-size="14.00">add</text>
<text text-anchor="start" x="432.5" y="-284.694" font-family="Times,serif" font-size="14.00">dimensions={0}</text>
<text text-anchor="start" x="464" y="-270.694" font-family="Times,serif" font-size="14.00">f32[]</text>
</a>
</g>
</g>
<!-- 140175364499392&#45;&gt;140175364506384 -->
<g id="edge6" class="edge"><title>140175364499392&#45;&gt;140175364506384</title>
<g id="a_edge6"><a xlink:title="reduce.3 &#45;&gt; multiply">
<path fill="none" stroke="black" d="M478,-262.831C478,-254.577 478,-245.616 478,-237.199"/>
<polygon fill="black" stroke="black" points="481.5,-236.924 478,-226.924 474.5,-236.924 481.5,-236.924"/>
</a>
</g>
<text text-anchor="middle" x="486.452" y="-241.35" font-family="Times,serif" font-size="14.00">0</text>
</g>
<!-- 140175364489920 -->
<g id="node13" class="node"><title>140175364489920</title>
<g id="a_node13"><a xlink:title=" ">
<polygon fill="#fff9c4" stroke="#cbc693" points="449.5,-405.894 372.5,-405.894 372.5,-369.894 449.5,-369.894 449.5,-405.894"/>
<text text-anchor="start" x="383.5" y="-391.694" font-family="Times,serif" font-weight="bold" font-size="14.00">convert.2</text>
<text text-anchor="start" x="380.5" y="-377.694" font-family="Times,serif" font-size="14.00">f32[10000]</text>
</a>
</g>
</g>
<!-- 140175364489920&#45;&gt;140175364499392 -->
<g id="edge7" class="edge"><title>140175364489920&#45;&gt;140175364499392</title>
<g id="a_edge7"><a xlink:title="convert.2 &#45;&gt; reduce.3">
<path fill="none" stroke="black" d="M423.602,-369.777C430.809,-359.989 440.165,-347.282 449.079,-335.174"/>
<polygon fill="black" stroke="black" points="452.038,-337.059 455.149,-326.931 446.401,-332.908 452.038,-337.059"/>
</a>
</g>
<text text-anchor="middle" x="451.208" y="-342.839" font-family="Times,serif" font-size="14.00">0</text>
</g>
<!-- 140175364503856 -->
<g id="node14" class="node"><title>140175364503856</title>
<g id="a_node14"><a xlink:title=" ">
<polygon fill="#ffe0b2" stroke="#cbae82" points="584,-412.894 468,-412.894 468,-362.894 584,-362.894 584,-412.894"/>
<text text-anchor="start" x="489.5" y="-398.694" font-family="Times,serif" font-weight="bold" font-size="14.00">Parameter 0</text>
<text text-anchor="start" x="512" y="-384.694" font-family="Times,serif" font-size="14.00">f32[]</text>
<text text-anchor="start" x="476" y="-370.694" font-family="Times,serif" font-weight="bold" font-size="14.00">constant</text>
<text text-anchor="start" x="525" y="-370.694" font-family="Times,serif" font-size="14.00"> 0 (f32[])</text>
</a>
</g>
</g>
<!-- 140175364503856&#45;&gt;140175364499392 -->
<g id="edge8" class="edge"><title>140175364503856&#45;&gt;140175364499392</title>
<g id="a_edge8"><a xlink:title="constant.param_1.1 &#45;&gt; reduce.3">
<path fill="none" stroke="black" d="M513.137,-362.508C508.846,-354.374 503.946,-345.083 499.194,-336.074"/>
<polygon fill="black" stroke="black" points="502.281,-334.425 494.52,-327.213 496.09,-337.691 502.281,-334.425"/>
</a>
</g>
<text text-anchor="middle" x="510.453" y="-335.602" font-family="Times,serif" font-size="14.00">1</text>
</g>
<!-- 140175364488720 -->
<g id="node15" class="node"><title>140175364488720</title>
<g id="a_node15"><a xlink:title=" ">
<polygon fill="#fff9c4" stroke="#cbc693" points="457.5,-484.894 374.5,-484.894 374.5,-448.894 457.5,-448.894 457.5,-484.894"/>
<text text-anchor="start" x="387" y="-470.694" font-family="Times,serif" font-weight="bold" font-size="14.00">equal&#45;to.2</text>
<text text-anchor="start" x="382.5" y="-456.694" font-family="Times,serif" font-size="14.00">pred[10000]</text>
</a>
</g>
</g>
<!-- 140175364488720&#45;&gt;140175364489920 -->
<g id="edge9" class="edge"><title>140175364488720&#45;&gt;140175364489920</title>
<g id="a_edge9"><a xlink:title="equal&#45;to.2 &#45;&gt; convert.2">
<path fill="none" stroke="black" d="M414.89,-448.805C414.269,-439.235 413.479,-427.077 412.774,-416.217"/>
<polygon fill="black" stroke="black" points="416.247,-415.687 412.107,-405.935 409.262,-416.141 416.247,-415.687"/>
</a>
</g>
</g>
<!-- 140175364504960 -->
<g id="node16" class="node"><title>140175364504960</title>
<g id="a_node16"><a xlink:title=" ">
<polygon fill="#ffe0b2" stroke="#cbae82" points="460.5,-556.894 371.5,-556.894 371.5,-520.894 460.5,-520.894 460.5,-556.894"/>
<text text-anchor="start" x="379.5" y="-542.694" font-family="Times,serif" font-weight="bold" font-size="14.00">Parameter 1</text>
<text text-anchor="start" x="385" y="-528.694" font-family="Times,serif" font-size="14.00">s64[10000]</text>
</a>
</g>
</g>
<!-- 140175364504960&#45;&gt;140175364488720 -->
<g id="edge10" class="edge"><title>140175364504960&#45;&gt;140175364488720</title>
<g id="a_edge10"><a xlink:title="reduce.1.param_1 &#45;&gt; equal&#45;to.2">
<path fill="none" stroke="black" d="M416,-520.591C416,-512.877 416,-503.606 416,-495.006"/>
<polygon fill="black" stroke="black" points="419.5,-494.998 416,-484.998 412.5,-494.998 419.5,-494.998"/>
</a>
</g>
<text text-anchor="middle" x="424.452" y="-499.424" font-family="Times,serif" font-size="14.00">0</text>
</g>
<!-- 140175364508000&#45;&gt;140175364488720 -->
<g id="edge11" class="edge"><title>140175364508000&#45;&gt;140175364488720</title>
<g id="a_edge11"><a xlink:title="arg3.param_2 &#45;&gt; equal&#45;to.2">
<path fill="none" stroke="black" d="M502.868,-520.77C487.832,-511.617 469.133,-500.236 452.94,-490.379"/>
<polygon fill="black" stroke="black" points="454.602,-487.293 444.24,-485.084 450.962,-493.273 454.602,-487.293"/>
</a>
</g>
<text text-anchor="middle" x="464.118" y="-483.588" font-family="Times,serif" font-size="14.00">1</text>
</g>
<!-- 140175364508736 -->
<g id="node18" class="node"><title>140175364508736</title>
<g id="a_node18"><a xlink:title=" ">
<polygon fill="#e1bee7" stroke="#af8eb5" points="484.5,-694.894 345.5,-694.894 345.5,-630.894 484.5,-630.894 484.5,-694.894"/>
<text text-anchor="start" x="390" y="-680.694" font-family="Times,serif" font-weight="bold" font-size="14.00">reduce.4</text>
<text text-anchor="start" x="353.5" y="-666.694" font-family="Times,serif" font-size="14.00">Subcomputation: </text>
<text text-anchor="start" x="450.5" y="-666.694" font-family="Times,serif" font-weight="bold" font-size="14.00">max</text>
<text text-anchor="start" x="369.5" y="-652.694" font-family="Times,serif" font-size="14.00">dimensions={1}</text>
<text text-anchor="start" x="384" y="-638.694" font-family="Times,serif" font-size="14.00">s64[10000]</text>
</a>
</g>
</g>
<!-- 140175364508736&#45;&gt;140175364504960 -->
<g id="edge12" class="edge"><title>140175364508736&#45;&gt;140175364504960</title>
<g id="a_edge12"><a xlink:title="reduce.4 &#45;&gt; reduce.1.param_1">
<path fill="none" stroke="black" d="M415.255,-630.792C415.416,-611.108 415.623,-585.905 415.778,-567.032"/>
<polygon fill="black" stroke="black" points="419.278,-567.036 415.86,-557.008 412.278,-566.979 419.278,-567.036"/>
</a>
</g>
</g>
<!-- 140175364485072 -->
<g id="node19" class="node"><title>140175364485072</title>
<g id="a_node19"><a xlink:title=" ">
<polygon fill="#fff9c4" stroke="#cbc693" points="275.5,-773.894 180.5,-773.894 180.5,-737.894 275.5,-737.894 275.5,-773.894"/>
<text text-anchor="start" x="211.5" y="-759.694" font-family="Times,serif" font-weight="bold" font-size="14.00">and.1</text>
<text text-anchor="start" x="188.5" y="-745.694" font-family="Times,serif" font-size="14.00">s64[10000,10]</text>
</a>
</g>
</g>
<!-- 140175364485072&#45;&gt;140175364508736 -->
<g id="edge14" class="edge"><title>140175364485072&#45;&gt;140175364508736</title>
<g id="a_edge14"><a xlink:title="and.1 &#45;&gt; reduce.4">
<path fill="none" stroke="black" d="M263.173,-737.777C285.416,-726.954 314.991,-712.561 342.126,-699.356"/>
<polygon fill="black" stroke="black" points="343.761,-702.453 351.221,-694.931 340.698,-696.159 343.761,-702.453"/>
</a>
</g>
<text text-anchor="middle" x="338.621" y="-706.762" font-family="Times,serif" font-size="14.00">0</text>
</g>
<!-- 140175364509600 -->
<g id="node20" class="node"><title>140175364509600</title>
<g id="a_node20"><a xlink:title=" ">
<polygon fill="#ffe0b2" stroke="#cbae82" points="536.5,-780.894 293.5,-780.894 293.5,-730.894 536.5,-730.894 536.5,-780.894"/>
<text text-anchor="start" x="378.5" y="-766.694" font-family="Times,serif" font-weight="bold" font-size="14.00">Parameter 0</text>
<text text-anchor="start" x="401" y="-752.694" font-family="Times,serif" font-size="14.00">s64[]</text>
<text text-anchor="start" x="301.5" y="-738.694" font-family="Times,serif" font-weight="bold" font-size="14.00">constant</text>
<text text-anchor="start" x="350.5" y="-738.694" font-family="Times,serif" font-size="14.00"> &#45;9223372036854775808 (s64[])</text>
</a>
</g>
</g>
<!-- 140175364509600&#45;&gt;140175364508736 -->
<g id="edge15" class="edge"><title>140175364509600&#45;&gt;140175364508736</title>
<g id="a_edge15"><a xlink:title="constant.1.param_1.1 &#45;&gt; reduce.4">
<path fill="none" stroke="black" d="M415,-730.508C415,-722.797 415,-714.048 415,-705.484"/>
<polygon fill="black" stroke="black" points="418.5,-705.213 415,-695.213 411.5,-705.213 418.5,-705.213"/>
</a>
</g>
<text text-anchor="middle" x="423.452" y="-709.639" font-family="Times,serif" font-size="14.00">1</text>
</g>
<!-- 140175364491728 -->
<g id="node21" class="node"><title>140175364491728</title>
<g id="a_node21"><a xlink:title=" ">
<polygon fill="#fff9c4" stroke="#cbc693" points="336.5,-852.894 185.5,-852.894 185.5,-816.894 336.5,-816.894 336.5,-852.894"/>
<text text-anchor="start" x="193.5" y="-838.694" font-family="Times,serif" font-weight="bold" font-size="14.00">shift&#45;right&#45;arithmetic.1</text>
<text text-anchor="start" x="221.5" y="-824.694" font-family="Times,serif" font-size="14.00">s64[10000,10]</text>
</a>
</g>
</g>
<!-- 140175364491728&#45;&gt;140175364485072 -->
<g id="edge16" class="edge"><title>140175364491728&#45;&gt;140175364485072</title>
<g id="a_edge16"><a xlink:title="shift&#45;right&#45;arithmetic.1 &#45;&gt; and.1">
<path fill="none" stroke="black" d="M253.676,-816.805C249.447,-806.936 244.037,-794.314 239.275,-783.203"/>
<polygon fill="black" stroke="black" points="242.46,-781.748 235.303,-773.935 236.026,-784.505 242.46,-781.748"/>
</a>
</g>
<text text-anchor="middle" x="250.212" y="-783.566" font-family="Times,serif" font-size="14.00">0</text>
</g>
<!-- 140175364510816&#45;&gt;140175364485072 -->
<g id="edge17" class="edge"><title>140175364510816&#45;&gt;140175364485072</title>
<g id="a_edge17"><a xlink:title="broadcast.4.param_2.1 &#45;&gt; and.1">
<path fill="none" stroke="black" d="M389.718,-816.831C358.362,-806.989 318.75,-793.995 284,-780.894 281.444,-779.93 278.833,-778.917 276.205,-777.873"/>
<polygon fill="black" stroke="black" points="277.262,-774.524 266.681,-773.999 274.625,-781.009 277.262,-774.524"/>
</a>
</g>
<text text-anchor="middle" x="286.656" y="-769.299" font-family="Times,serif" font-size="14.00">1</text>
</g>
<!-- 140175364480544 -->
<g id="node23" class="node"><title>140175364480544</title>
<g id="a_node23"><a xlink:title=" ">
<polygon fill="#fff9c4" stroke="#cbc693" points="308.5,-938.894 213.5,-938.894 213.5,-902.894 308.5,-902.894 308.5,-938.894"/>
<text text-anchor="start" x="231" y="-924.694" font-family="Times,serif" font-weight="bold" font-size="14.00">shift&#45;left.1</text>
<text text-anchor="start" x="221.5" y="-910.694" font-family="Times,serif" font-size="14.00">s64[10000,10]</text>
</a>
</g>
</g>
<!-- 140175364480544&#45;&gt;140175364491728 -->
<g id="edge18" class="edge"><title>140175364480544&#45;&gt;140175364491728</title>
<g id="a_edge18"><a xlink:title="shift&#45;left.1 &#45;&gt; shift&#45;right&#45;arithmetic.1">
<path fill="none" stroke="black" d="M261,-902.489C261,-891.151 261,-876.121 261,-863.209"/>
<polygon fill="black" stroke="black" points="264.5,-862.989 261,-852.989 257.5,-862.989 264.5,-862.989"/>
</a>
</g>
<text text-anchor="middle" x="269.452" y="-867.415" font-family="Times,serif" font-size="14.00">0</text>
</g>
<!-- 140175364512848&#45;&gt;140175364491728 -->
<g id="edge19" class="edge"><title>140175364512848&#45;&gt;140175364491728</title>
<g id="a_edge19"><a xlink:title="broadcast.2.param_3.1 &#45;&gt; shift&#45;right&#45;arithmetic.1">
<path fill="none" stroke="black" d="M381.098,-988.718C368.452,-965.073 343.823,-921.702 317,-888.894 308.66,-878.693 298.453,-868.5 289.049,-859.818"/>
<polygon fill="black" stroke="black" points="291.166,-857.014 281.397,-852.913 286.477,-862.211 291.166,-857.014"/>
</a>
</g>
<text text-anchor="middle" x="300.517" y="-855.081" font-family="Times,serif" font-size="14.00">1</text>
</g>
<!-- 140175364512848&#45;&gt;140175364480544 -->
<g id="edge22" class="edge"><title>140175364512848&#45;&gt;140175364480544</title>
<g id="a_edge22"><a xlink:title="broadcast.2.param_3.1 &#45;&gt; shift&#45;left.1">
<path fill="none" stroke="black" d="M363.584,-988.693C344.018,-975.952 317.169,-958.469 295.846,-944.584"/>
<polygon fill="black" stroke="black" points="297.671,-941.596 287.381,-939.072 293.851,-947.462 297.671,-941.596"/>
</a>
</g>
<text text-anchor="middle" x="307.183" y="-938.18" font-family="Times,serif" font-size="14.00">1</text>
</g>
<!-- 140175364478416 -->
<g id="node25" class="node"><title>140175364478416</title>
<g id="a_node25"><a xlink:title=" ">
<polygon fill="#fff9c4" stroke="#cbc693" points="308.5,-1024.89 213.5,-1024.89 213.5,-988.894 308.5,-988.894 308.5,-1024.89"/>
<text text-anchor="start" x="233.5" y="-1010.69" font-family="Times,serif" font-weight="bold" font-size="14.00">convert.3</text>
<text text-anchor="start" x="221.5" y="-996.694" font-family="Times,serif" font-size="14.00">s64[10000,10]</text>
</a>
</g>
</g>
<!-- 140175364478416&#45;&gt;140175364480544 -->
<g id="edge21" class="edge"><title>140175364478416&#45;&gt;140175364480544</title>
<g id="a_edge21"><a xlink:title="convert.3 &#45;&gt; shift&#45;left.1">
<path fill="none" stroke="black" d="M261,-988.489C261,-977.151 261,-962.121 261,-949.209"/>
<polygon fill="black" stroke="black" points="264.5,-948.989 261,-938.989 257.5,-948.989 264.5,-948.989"/>
</a>
</g>
<text text-anchor="middle" x="269.452" y="-953.415" font-family="Times,serif" font-size="14.00">0</text>
</g>
<!-- 140175364476208 -->
<g id="node26" class="node"><title>140175364476208</title>
<g id="a_node26"><a xlink:title=" ">
<polygon fill="#fff9c4" stroke="#cbc693" points="311.5,-1110.89 210.5,-1110.89 210.5,-1074.89 311.5,-1074.89 311.5,-1110.89"/>
<text text-anchor="start" x="232" y="-1096.69" font-family="Times,serif" font-weight="bold" font-size="14.00">equal&#45;to.3</text>
<text text-anchor="start" x="218.5" y="-1082.69" font-family="Times,serif" font-size="14.00">pred[10000,10]</text>
</a>
</g>
</g>
<!-- 140175364476208&#45;&gt;140175364478416 -->
<g id="edge24" class="edge"><title>140175364476208&#45;&gt;140175364478416</title>
<g id="a_edge24"><a xlink:title="equal&#45;to.3 &#45;&gt; convert.3">
<path fill="none" stroke="black" d="M261,-1074.49C261,-1063.15 261,-1048.12 261,-1035.21"/>
<polygon fill="black" stroke="black" points="264.5,-1034.99 261,-1024.99 257.5,-1034.99 264.5,-1034.99"/>
</a>
</g>
</g>
<!-- 140175364514016 -->
<g id="node27" class="node"><title>140175364514016</title>
<g id="a_node27"><a xlink:title=" ">
<polygon fill="#ffe0b2" stroke="#cbae82" points="465.5,-1196.89 340.5,-1196.89 340.5,-1160.89 465.5,-1160.89 465.5,-1196.89"/>
<text text-anchor="start" x="366.5" y="-1182.69" font-family="Times,serif" font-weight="bold" font-size="14.00">Parameter 3</text>
<text text-anchor="start" x="348.5" y="-1168.69" font-family="Times,serif" font-size="14.00">f32[10000,10]{1,0}</text>
</a>
</g>
</g>
<!-- 140175364514016&#45;&gt;140175364476208 -->
<g id="edge25" class="edge"><title>140175364514016&#45;&gt;140175364476208</title>
<g id="a_edge25"><a xlink:title="add.1.param_3 &#45;&gt; equal&#45;to.3">
<path fill="none" stroke="black" d="M373.922,-1160.69C352.193,-1147.84 322.303,-1130.16 298.733,-1116.22"/>
<polygon fill="black" stroke="black" points="300.428,-1113.15 290.04,-1111.07 296.864,-1119.18 300.428,-1113.15"/>
</a>
</g>
<text text-anchor="middle" x="309.944" y="-1109.33" font-family="Times,serif" font-size="14.00">0</text>
</g>
<!-- 140175364515616&#45;&gt;140175364476208 -->
<g id="edge26" class="edge"><title>140175364515616&#45;&gt;140175364476208</title>
<g id="a_edge26"><a xlink:title="broadcast.1.param_4 &#45;&gt; equal&#45;to.3">
<path fill="none" stroke="black" d="M260.207,-1160.49C260.342,-1149.15 260.521,-1134.12 260.675,-1121.21"/>
<polygon fill="black" stroke="black" points="264.177,-1121.03 260.796,-1110.99 257.178,-1120.95 264.177,-1121.03"/>
</a>
</g>
<text text-anchor="middle" x="269.032" y="-1125.51" font-family="Times,serif" font-size="14.00">1</text>
</g>
<!-- 140175364517088 -->
<g id="node29" class="node"><title>140175364517088</title>
<g id="a_node29"><a xlink:title=" ">
<polygon fill="#fff9c4" stroke="#cbc693" points="460.5,-1498.89 335.5,-1498.89 335.5,-1462.89 460.5,-1462.89 460.5,-1498.89"/>
<text text-anchor="start" x="381.5" y="-1484.69" font-family="Times,serif" font-weight="bold" font-size="14.00">add.2</text>
<text text-anchor="start" x="343.5" y="-1470.69" font-family="Times,serif" font-size="14.00">f32[10000,10]{1,0}</text>
</a>
</g>
</g>
<!-- 140175364517088&#45;&gt;140175364474000 -->
<g id="edge3" class="edge"><title>140175364517088&#45;&gt;140175364474000</title>
<g id="a_edge3"><a xlink:title="add.2 &#45;&gt; reduce">
<path fill="none" stroke="black" d="M376.934,-1462.78C366.648,-1454.42 353.746,-1443.94 340.919,-1433.52"/>
<polygon fill="black" stroke="black" points="342.934,-1430.64 332.966,-1427.05 338.52,-1436.08 342.934,-1430.64"/>
</a>
</g>
<text text-anchor="middle" x="352.364" y="-1428.22" font-family="Times,serif" font-size="14.00">0</text>
</g>
<!-- 140175364517088&#45;&gt;140175364514016 -->
<g id="edge27" class="edge"><title>140175364517088&#45;&gt;140175364514016</title>
<g id="a_edge27"><a xlink:title="add.2 &#45;&gt; add.1.param_3">
<path fill="none" stroke="black" d="M398.29,-1462.47C399.124,-1412.43 401.531,-1268.04 402.543,-1207.32"/>
<polygon fill="black" stroke="black" points="406.048,-1207.05 402.715,-1196.99 399.049,-1206.93 406.048,-1207.05"/>
</a>
</g>
</g>
<!-- 140175364518384&#45;&gt;140175364517088 -->
<g id="edge29" class="edge"><title>140175364518384&#45;&gt;140175364517088</title>
<g id="a_edge29"><a xlink:title="dot.param_0 &#45;&gt; add.2">
<path fill="none" stroke="black" d="M395.666,-1541.81C396.039,-1532.23 396.512,-1520.08 396.935,-1509.22"/>
<polygon fill="black" stroke="black" points="400.444,-1509.06 397.336,-1498.93 393.449,-1508.79 400.444,-1509.06"/>
</a>
</g>
<text text-anchor="middle" x="405.076" y="-1513.68" font-family="Times,serif" font-size="14.00">0</text>
</g>
<!-- 140175364472528 -->
<g id="node31" class="node"><title>140175364472528</title>
<g id="a_node31"><a xlink:title=" ">
<polygon fill="#c8e6c9" stroke="#97b498" points="582.5,-1584.89 475.5,-1584.89 475.5,-1534.89 582.5,-1534.89 582.5,-1584.89"/>
<text text-anchor="start" x="495" y="-1570.69" font-family="Times,serif" font-weight="bold" font-size="14.00">broadcast.5</text>
<text text-anchor="start" x="483.5" y="-1556.69" font-family="Times,serif" font-size="14.00">dimensions={1}</text>
<text text-anchor="start" x="489.5" y="-1542.69" font-family="Times,serif" font-size="14.00">f32[10000,10]</text>
</a>
</g>
</g>
<!-- 140175364472528&#45;&gt;140175364517088 -->
<g id="edge30" class="edge"><title>140175364472528&#45;&gt;140175364517088</title>
<g id="a_edge30"><a xlink:title="broadcast.5 &#45;&gt; add.2">
<path fill="none" stroke="black" d="M487.91,-1534.74C471.323,-1524.99 452.298,-1513.81 436.033,-1504.25"/>
<polygon fill="black" stroke="black" points="437.708,-1501.17 427.314,-1499.12 434.161,-1507.21 437.708,-1501.17"/>
</a>
</g>
<text text-anchor="middle" x="447.223" y="-1497.32" font-family="Times,serif" font-size="14.00">1</text>
</g>
<!-- 140175364519600&#45;&gt;140175364472528 -->
<g id="edge32" class="edge"><title>140175364519600&#45;&gt;140175364472528</title>
<g id="a_edge32"><a xlink:title="arg0.param_1 &#45;&gt; broadcast.5">
<path fill="none" stroke="black" d="M529,-1627.49C529,-1618.17 529,-1606.35 529,-1595.26"/>
<polygon fill="black" stroke="black" points="532.5,-1594.96 529,-1584.96 525.5,-1594.96 532.5,-1594.96"/>
</a>
</g>
</g>
</g>
</svg>
